<svg width="538" height="510" viewBox="0 0 538 510" fill="none" xmlns="http://www.w3.org/2000/svg">
<rect x="365.5" y="192.5" width="119" height="113" rx="22.5" fill="#63B5CA" stroke="black" stroke-width="15"/>
<rect x="216.5" y="244.5" width="119" height="113" rx="22.5" fill="#F99016" stroke="black" stroke-width="15"/>
<rect x="77.5" y="208.5" width="119" height="113" rx="22.5" fill="#63B5CA" stroke="black" stroke-width="15"/>
<rect x="134.5" y="298.5" width="119" height="113" rx="22.5" fill="#56B562" stroke="black" stroke-width="15"/>
<path d="M173.167 234.75L124.125 283.792L101.833 261.5" stroke="white" stroke-width="12" stroke-linejoin="round"/>
<path d="M36.4508 492.014C32.0845 491.943 29.0195 493.402 27.3871 498.027C26.7836 505.748 29.597 508.576 37.757 508.611C67.0702 508.736 96.3588 507.478 125.699 508.134C171.17 509.15 216.666 509.057 262.153 509.285C299.98 509.475 337.808 509.496 375.636 509.478C382.454 509.475 389.32 509.336 396.081 508.55C431.041 504.485 459.609 488.149 481.906 461.411C510.042 427.67 527.533 388.571 536.96 345.797C539.245 335.433 533.083 328.213 522.455 328.004C518.175 327.92 514.232 329.098 510.272 330.34C479.971 339.842 449.702 349.453 419.105 357.978C379.723 368.951 339.913 377.974 299.44 383.907C289.171 385.413 278.864 386.68 268.562 387.947L268.339 387.974L125.348 393.903C110.482 395.696 100.245 389.782 94.5613 375.874C91.2891 367.868 88.2668 359.752 84.7555 351.853C81.9455 345.532 77.0351 341.15 69.909 340.743C50.1141 339.611 30.2816 339.905 10.488 340.605C3.33259 340.859 -0.13277 345.94 0.00388793 353.309C0.12756 359.978 1.84707 366.443 2.87515 372.997C4.17711 381.297 5.12175 382.295 13.6212 382.721C17.1891 382.9 19.9911 384.459 22.4025 386.901C25.8453 390.387 27.0002 394.907 27.9573 399.5C34.7025 431.874 46.2382 462.055 68.1147 487.534C69.0328 488.603 70.299 489.625 70.2049 491.785C68.6394 491.874 67.0429 492.037 65.4459 492.041C55.7806 492.069 46.1135 492.17 36.4508 492.014Z" fill="black"/>
<path d="M304.028 96.9936C307.472 97.039 310.5 96.8227 313.461 97.1754C317.563 97.664 320.374 99.9418 321.889 103.976C323.311 107.759 322.436 110.559 319.646 113.397C296.404 137.033 273.258 160.763 250.078 184.46C248.914 185.651 247.727 186.823 246.511 187.96C241.67 192.488 240.245 192.458 235.393 187.546C213.151 165.028 190.929 142.49 168.693 119.965C166.587 117.832 164.568 115.587 162.285 113.658C158.655 110.592 158.326 106.819 159.881 102.825C161.431 98.8406 164.739 97.0643 168.969 97.0589C178.966 97.0462 188.97 96.8352 198.956 97.1612C203.765 97.3181 205.329 95.749 205.291 90.9398C205.095 66.4495 205.202 41.957 205.15 17.4654C205.141 13.206 205.723 9.06376 208.271 5.61996C210.95 1.9987 214.546 -0.0527263 219.372 0.00103065C233.033 0.153222 246.696 0.0413597 260.358 0.0561607C270.128 0.0667347 275.782 5.63305 275.811 15.5584C275.883 40.2166 275.84 64.8751 275.843 89.5335C275.844 97.0575 275.845 97.0608 283.597 97.0437C290.259 97.0289 296.921 97.0054 304.028 96.9936Z" fill="black"/>
</svg>
